<?xml version="1.0" encoding="UTF-8" standalone="no"?>
<!-- Created with Inkscape (http://www.inkscape.org/) -->

<svg
   xmlns:dc="http://purl.org/dc/elements/1.1/"
   xmlns:cc="http://creativecommons.org/ns#"
   xmlns:rdf="http://www.w3.org/1999/02/22-rdf-syntax-ns#"
   xmlns:svg="http://www.w3.org/2000/svg"
   xmlns="http://www.w3.org/2000/svg"
   xmlns:sodipodi="http://sodipodi.sourceforge.net/DTD/sodipodi-0.dtd"
   xmlns:inkscape="http://www.inkscape.org/namespaces/inkscape"
   width="74mm"
   height="52mm"
   viewBox="0 0 74 52"
   version="1.1"
   id="SVGRoot"
   inkscape:version="0.92.2 (5c3e80d, 2017-08-06)"
   sodipodi:docname="planter.svg">
  <sodipodi:namedview
     id="base"
     pagecolor="#ffffff"
     bordercolor="#666666"
     borderopacity="1.0"
     inkscape:pageopacity="0.0"
     inkscape:pageshadow="2"
     inkscape:zoom="7.9999996"
     inkscape:cx="175.62933"
     inkscape:cy="110.75197"
     inkscape:document-units="mm"
     inkscape:current-layer="layer1"
     showgrid="false"
     inkscape:window-width="3840"
     inkscape:window-height="2066"
     inkscape:window-x="-11"
     inkscape:window-y="-11"
     inkscape:window-maximized="1" />
  <defs
     id="defs3699" />
  <metadata
     id="metadata3702">
    <rdf:RDF>
      <cc:Work
         rdf:about="">
        <dc:format>image/svg+xml</dc:format>
        <dc:type
           rdf:resource="http://purl.org/dc/dcmitype/StillImage" />
        <dc:title></dc:title>
      </cc:Work>
    </rdf:RDF>
  </metadata>
  <g
     id="layer1"
     inkscape:groupmode="layer"
     inkscape:label="Layer 1">
    <path
       style="fill:#00ccff;stroke:#000000;stroke-width:0.3169401px;stroke-linecap:butt;stroke-linejoin:miter;stroke-opacity:1"
       d="M 3.760903,22.342575 59.843374,11.466647 59.626282,30.090613 4.4497752,42.729128 Z"
       id="path5193"
       inkscape:connector-curvature="0"
       sodipodi:nodetypes="ccccc" />
    <path
       style="fill:#00aad4;fill-opacity:1;stroke:#000000;stroke-width:0.3169401px;stroke-linecap:butt;stroke-linejoin:miter;stroke-opacity:1"
       d="m 60.146676,11.484464 10.00131,3.018893 -0.4429,20.639722 -10.053262,-4.68953 z"
       id="path5206"
       inkscape:connector-curvature="0"
       sodipodi:nodetypes="ccccc" />
    <path
       style="fill:#784421;stroke:none;stroke-width:0.3169401px;stroke-linecap:butt;stroke-linejoin:miter;stroke-opacity:1"
       d="M 3.9144893,23.901901 C 4.7285925,23.872977 60.087607,12.681252 60.087607,12.681252 l 10.013469,3.29679 -55.928887,12.319577 z"
       id="path5210"
       inkscape:connector-curvature="0" />
    <path
       style="fill:#85502f;fill-opacity:1;stroke-width:0.29636738"
       id="path4679"
       d="m 60.015132,13.184222 c 0.351899,0.251933 0.741265,0.448598 1.128623,0.641568 0.252327,0.121943 0.510241,0.231905 0.775697,0.322864 0.18119,0.05815 0.367675,0.09841 0.554305,0.135424 0.193715,0.03468 0.389377,0.05658 0.582049,0.09693 0.208814,0.04291 0.416128,0.09273 0.625184,0.134455 0.110351,0.0254 0.223706,0.02983 0.335577,0.04397 0.09862,0.01711 0.192516,0.04991 0.283951,0.08925 0.09597,0.04565 0.18865,0.09999 0.272423,0.165072 0.03911,0.0323 0.08025,0.06189 0.120887,0.09228 0,0 -0.235102,0.146112 -0.235102,0.146112 v 0 c -0.04056,-0.03055 -0.0816,-0.06041 -0.120582,-0.09295 -0.08203,-0.06329 -0.171927,-0.117143 -0.266488,-0.160256 -0.09076,-0.03671 -0.184069,-0.06768 -0.281571,-0.0816 -0.111648,-0.01247 -0.223539,-0.02386 -0.3334,-0.04825 -0.208779,-0.04358 -0.416252,-0.09309 -0.62557,-0.134251 -0.192675,-0.03905 -0.38793,-0.06228 -0.581367,-0.09719 -0.187572,-0.03779 -0.375189,-0.07832 -0.557013,-0.138075 -0.264039,-0.09205 -0.517096,-0.210932 -0.76861,-0.331733 -0.389524,-0.196205 -0.779328,-0.395848 -1.141782,-0.63819 0,0 0.232789,-0.145401 0.232789,-0.145401 z"
       inkscape:connector-curvature="0" />
    <path
       style="fill:#70ad40;fill-opacity:1;stroke-width:0.02494622"
       d="M 60.154231,15.613044 C 59.214319,15.45573 58.450116,14.816269 58.118271,13.909406 57.938809,13.41898 57.906104,12.914966 58.011008,12.256265 58.272663,10.613171 58.334645,9.1210723 58.180274,8.1815196 58.098948,7.6866083 57.821549,6.9759398 57.521405,6.4936122 57.043542,5.7256955 56.267862,5.0048773 55.440446,4.5598329 55.307024,4.4880726 55.205748,4.4291651 55.21539,4.4289376 c 0.04044,-9.856e-4 0.609926,0.2703651 0.867909,0.4134989 1.072784,0.5951994 1.878974,1.4391806 2.402379,2.5149917 0.201385,0.4139273 0.33888,0.945894 0.377628,1.461035 0.009,0.1181571 0.02395,0.2304171 0.03348,0.249476 0.01179,0.023611 0.06234,-0.033286 0.158536,-0.1784693 L 59.19654,8.6763491 59.20094,8.3802316 C 59.20754,7.9415294 59.307207,7.6658883 59.553564,7.4053681 59.843245,7.099032 60.508207,6.9077069 61.404769,6.872731 L 61.78963,6.857715 61.77254,6.9963279 c -0.103236,0.8370467 -0.427601,1.5904831 -0.832603,1.9339989 -0.336585,0.2854895 -0.758105,0.3993815 -1.183084,0.3196635 -0.19383,-0.03635 -0.301623,-0.07415 -0.301623,-0.105724 0,-0.04053 0.255484,-0.4463158 0.430944,-0.6844845 0.300057,-0.4072941 0.61852,-0.7113663 0.932354,-0.8902232 0.193787,-0.1104406 0.137925,-0.1123321 -0.113984,-0.00382 -0.687976,0.2962606 -1.31597,1.0570215 -1.696482,2.0551444 -0.07646,0.200555 -0.08107,0.231825 -0.09812,0.664423 -0.0099,0.249682 -0.01322,0.453965 -0.0076,0.453965 0.0057,0 0.100806,-0.0629 0.211322,-0.139806 0.226173,-0.157357 0.474616,-0.274128 0.74961,-0.352324 0.267895,-0.07617 0.868318,-0.09446 1.146251,-0.03491 1.002858,0.214886 1.767843,0.980322 2.039957,2.041151 0.04786,0.18654 0.05585,0.279544 0.05619,0.653593 3.37e-4,0.377345 -0.0073,0.466983 -0.05686,0.665266 -0.202955,0.812185 -0.679026,1.431965 -1.373995,1.788756 -0.349124,0.179235 -0.648894,0.254824 -1.055253,0.266092 -0.18012,0.0049 -0.389561,-0.0013 -0.465426,-0.014 z m 0.848525,-0.52777 c 0.865462,-0.188239 1.4937,-0.90161 1.609672,-1.827806 0.06443,-0.514507 -0.09545,-1.142909 -0.384482,-1.51119 -0.03146,-0.04009 -0.01404,0.0071 0.04023,0.108869 0.57578,1.080133 0.162459,2.436703 -0.903067,2.96396 -0.502532,0.248669 -1.159237,0.248151 -1.663367,-0.0013 -0.08456,-0.04185 -0.202468,-0.110849 -0.261997,-0.153331 -0.14364,-0.102514 -0.161973,-0.09823 -0.03487,0.0082 0.247343,0.206983 0.594508,0.370496 0.90055,0.424154 0.211529,0.03709 0.49552,0.03241 0.697316,-0.0115 z m -0.09703,-0.205194 c 0.396795,-0.08624 0.741226,-0.29469 1.025148,-0.620427 0.279302,-0.320438 0.432506,-0.669398 0.488242,-1.112079 0.05186,-0.41194 -0.04449,-0.903944 -0.248759,-1.270262 -0.117625,-0.210932 -0.460557,-0.570033 -0.665252,-0.696615 -0.323859,-0.200271 -0.740847,-0.306501 -1.091638,-0.278098 -0.812851,0.06581 -1.488029,0.653835 -1.714315,1.49302 -0.07682,0.284868 -0.07648,0.732909 7.37e-4,1.02293 0.274417,1.030415 1.24142,1.671128 2.20582,1.461531 z m -2.36432,-0.413414 c -0.257525,-0.425723 -0.370152,-0.810594 -0.388888,-1.328918 -0.01126,-0.31007 -0.0043,-0.413604 0.0502,-0.756773 0.07319,-0.460566 0.16816,-1.241105 0.213787,-1.757183 0.04896,-0.553903 0.04209,-1.8308201 -0.01168,-2.1677037 C 58.322775,7.9420296 58.182449,7.4804975 57.97648,7.0472928 57.862426,6.8074008 57.62276,6.388505 57.585721,6.3642973 c -0.01318,-0.00866 0.02095,0.057354 0.07585,0.1466087 0.16133,0.2622615 0.378582,0.7539851 0.484477,1.0965519 0.150617,0.4872373 0.194818,0.8080106 0.210611,1.5284434 0.01956,0.8917697 -0.05188,1.8446027 -0.218283,2.9116487 -0.06698,0.429488 -0.07768,0.560103 -0.07568,0.923517 0.0027,0.498068 0.04138,0.689342 0.21736,1.076008 0.09613,0.211233 0.308693,0.565804 0.339183,0.565804 0.0058,0 -0.0292,-0.0658 -0.07783,-0.146213 z m 0.993421,-3.842099 c 0.12301,-0.06327 0.310987,-0.138692 0.417725,-0.16759 0.397071,-0.107493 0.91951,-0.10805 1.309966,-0.0013 0.187941,0.05136 0.56864,0.228626 0.724347,0.337304 l 0.07619,0.05317 -0.07008,-0.06365 c -0.207932,-0.188838 -0.612013,-0.377178 -0.985172,-0.459181 -0.308176,-0.06773 -0.837446,-0.05372 -1.128028,0.02984 -0.24825,0.07139 -0.636348,0.267947 -0.830859,0.420794 -0.134815,0.105942 -0.151616,0.128929 -0.151616,0.207474 v 0.08833 l 0.206936,-0.165047 c 0.11381,-0.09078 0.30758,-0.216819 0.43059,-0.280097 z m -0.45915,-1.4162687 c 0.07756,-0.164767 0.178317,-0.3612391 0.223905,-0.4366044 0.06699,-0.1107376 0.08297,-0.1627706 0.08332,-0.2712105 0.0016,-0.4965604 0.227416,-0.9210242 0.589753,-1.1083458 0.31028,-0.1604118 0.857847,-0.2815601 1.417228,-0.3135623 0.251542,-0.014394 0.27291,-0.019625 0.27291,-0.066781 0,-0.048991 -0.01102,-0.050443 -0.260781,-0.034116 -0.639497,0.041794 -1.183655,0.1510461 -1.478067,0.2967389 -0.08455,0.041848 -0.211888,0.1342358 -0.282958,0.2053135 -0.240969,0.2410027 -0.336754,0.5157373 -0.327943,0.9406346 l 0.0054,0.2592971 -0.210281,0.3179011 c -0.172864,0.2613338 -0.21033,0.3350198 -0.210556,0.4141008 -1.45e-4,0.05291 0.0081,0.09619 0.01841,0.09619 0.01029,0 0.08215,-0.134809 0.159696,-0.299576 z m 0.79537,-0.3225163 c 0.400742,-0.6330918 0.688509,-0.981321 0.969836,-1.1736039 0.08259,-0.05646 0.140302,-0.1026551 0.128226,-0.1026551 -0.06021,7.6e-6 -0.433816,0.2873438 -0.61291,0.4713859 -0.318629,0.3274349 -0.777846,0.9573389 -0.742285,1.0181864 0.04228,0.07233 0.113961,0.01285 0.257133,-0.2133253 z M 57.308354,8.4268523 C 56.717099,8.3727837 56.204809,8.250707 55.872303,8.0846405 55.578733,7.9380205 55.406315,7.8149621 55.1888,7.5968156 54.964473,7.3718348 54.826393,7.1682271 54.690321,6.8617763 54.458231,6.3390794 54.420148,5.9723029 54.425686,4.3130819 c 0.0022,-0.6772468 0.01319,-1.3814304 0.02425,-1.5648515 l 0.02016,-0.3334921 0.05541,0.8782473 c 0.13125,2.0805401 0.263618,3.0991092 0.457101,3.5173813 0.394458,0.8527464 1.115227,1.2824729 2.653248,1.5818841 l 0.303232,0.059027 -0.194069,-0.00109 C 57.638269,8.4495666 57.441785,8.43906 57.308363,8.426883 Z m 1.729704,-1.2406016 c -0.0093,-0.042329 -0.02415,-0.1519962 -0.033,-0.2437066 C 58.981443,6.6978438 58.858324,6.2020074 58.754287,5.9326514 58.588183,5.5025994 58.3207,5.0863197 58.046129,4.830559 57.692184,4.5008595 57.097764,4.1504593 56.362273,3.8379522 55.818349,3.6068418 55.621428,3.5090318 55.434973,3.3773624 55.260406,3.254086 55.002779,2.9704733 54.920646,2.8111499 c -0.05504,-0.1067559 -0.04738,-0.101265 0.11711,0.084002 0.287544,0.3238715 0.494523,0.4403739 1.295518,0.7292124 0.916501,0.3304934 1.437967,0.6273711 1.877514,1.0689024 0.440375,0.4423633 0.721295,1.0422856 0.819248,1.7495644 0.03788,0.2734487 0.04474,0.9104675 0.008,0.7434159 z"
       id="path4613-01"
       inkscape:connector-curvature="0" />
    <path
       style="fill:#70ad40;fill-opacity:1;stroke-width:0.02494622"
       d="m 15.723777,24.605354 c -0.939912,-0.157313 -1.704115,-0.796775 -2.03596,-1.703637 -0.179462,-0.490427 -0.212167,-0.994441 -0.107263,-1.653141 0.261655,-1.643093 0.323636,-3.135195 0.169265,-4.074746 -0.08133,-0.494911 -0.358721,-1.20558 -0.658866,-1.687908 -0.477863,-0.767916 -1.253543,-1.488735 -2.080957,-1.93378 -0.133424,-0.07176 -0.2347,-0.130666 -0.225058,-0.130895 0.04044,-9.84e-4 0.609927,0.270366 0.867909,0.4135 1.072784,0.5952 1.878974,1.43918 2.40238,2.514992 0.201384,0.413926 0.338879,0.945894 0.377627,1.461035 0.009,0.118157 0.02395,0.230417 0.03348,0.249475 0.01179,0.02361 0.06234,-0.03329 0.158536,-0.178468 l 0.141218,-0.213122 0.0044,-0.296117 c 0.0066,-0.438702 0.106267,-0.714344 0.352625,-0.974864 0.289681,-0.306335 0.954644,-0.497661 1.851205,-0.532636 l 0.384861,-0.01502 -0.0171,0.138612 c -0.103236,0.837047 -0.427601,1.590483 -0.832603,1.933999 -0.336585,0.28549 -0.758103,0.399382 -1.183083,0.319664 -0.193831,-0.03636 -0.301624,-0.07415 -0.301624,-0.105724 0,-0.04053 0.255484,-0.446317 0.430944,-0.684486 0.300057,-0.407294 0.61852,-0.711366 0.932354,-0.890223 0.193787,-0.110441 0.137925,-0.112332 -0.113984,-0.0038 -0.687976,0.29626 -1.315969,1.057022 -1.696482,2.055144 -0.07646,0.200555 -0.08107,0.231826 -0.09813,0.664424 -0.0098,0.249683 -0.01322,0.453964 -0.0076,0.453964 0.0057,0 0.100806,-0.0629 0.211322,-0.139805 0.226173,-0.157357 0.474615,-0.274128 0.74961,-0.352324 0.267895,-0.07617 0.868317,-0.09446 1.146251,-0.03491 1.002858,0.214886 1.767843,0.980323 2.039957,2.04115 0.04786,0.18654 0.05585,0.279544 0.05619,0.653593 3.39e-4,0.377346 -0.0073,0.466983 -0.05687,0.665267 -0.202954,0.812185 -0.679025,1.431964 -1.373995,1.788755 -0.349125,0.179235 -0.648893,0.254824 -1.055251,0.266092 -0.18012,0.0049 -0.389563,-0.0013 -0.465427,-0.014 z m 0.848526,-0.52777 c 0.865462,-0.188239 1.493699,-0.901609 1.609672,-1.827805 0.06443,-0.514508 -0.09545,-1.14291 -0.384483,-1.51119 -0.03148,-0.04009 -0.01404,0.0071 0.04023,0.108869 0.575779,1.080134 0.162459,2.436704 -0.903068,2.963959 -0.502532,0.248669 -1.159237,0.248151 -1.663367,-0.0013 -0.08457,-0.04185 -0.202468,-0.110849 -0.261996,-0.15333 -0.14364,-0.102513 -0.161974,-0.09823 -0.03487,0.0082 0.247343,0.206983 0.594508,0.370495 0.90055,0.424153 0.21153,0.03709 0.495521,0.03241 0.697316,-0.0115 z m -0.09703,-0.205194 c 0.396795,-0.08624 0.741226,-0.29469 1.025148,-0.620426 0.279302,-0.320438 0.432507,-0.669399 0.488242,-1.11208 0.05187,-0.411939 -0.04449,-0.903944 -0.248759,-1.270262 -0.117625,-0.210932 -0.460557,-0.570033 -0.665252,-0.696615 -0.323859,-0.200271 -0.740846,-0.306498 -1.091637,-0.278098 -0.812851,0.06581 -1.488029,0.653835 -1.714316,1.49302 -0.07682,0.284868 -0.07648,0.73291 7.38e-4,1.022932 0.274416,1.030414 1.241419,1.671127 2.205819,1.461529 z m -2.364319,-0.413413 c -0.257526,-0.425724 -0.370152,-0.810596 -0.388889,-1.328918 -0.01125,-0.31007 -0.0043,-0.413604 0.0502,-0.756774 0.07319,-0.460565 0.168162,-1.241105 0.213788,-1.757182 0.04896,-0.553904 0.04209,-1.83082 -0.01168,-2.167703 -0.08205,-0.514061 -0.222378,-0.975593 -0.428347,-1.408797 -0.114054,-0.239893 -0.35372,-0.658788 -0.390758,-0.682995 -0.01319,-0.0086 0.02095,0.05736 0.07585,0.146608 0.16133,0.262262 0.378582,0.753986 0.484478,1.096551 0.150616,0.487238 0.194817,0.808012 0.210612,1.528444 0.01956,0.891769 -0.05189,1.844604 -0.218285,2.911649 -0.06698,0.429489 -0.07768,0.560105 -0.07568,0.923518 0.0027,0.498068 0.04138,0.689342 0.21736,1.076007 0.09613,0.211233 0.308693,0.565804 0.339183,0.565804 0.0058,0 -0.0292,-0.0658 -0.07783,-0.146212 z m 0.99342,-3.842097 c 0.12301,-0.06327 0.310987,-0.138694 0.417725,-0.167591 0.397071,-0.107493 0.91951,-0.10805 1.309966,-0.0013 0.187941,0.05136 0.56864,0.228625 0.724347,0.337303 l 0.07619,0.05317 -0.07007,-0.06365 c -0.207933,-0.188838 -0.612014,-0.377178 -0.985173,-0.459181 -0.308175,-0.06773 -0.837446,-0.05372 -1.128028,0.02984 -0.248249,0.07139 -0.636348,0.267947 -0.830858,0.420793 -0.134816,0.105942 -0.151617,0.128929 -0.151617,0.207474 v 0.08833 l 0.206936,-0.165047 c 0.113811,-0.09077 0.30758,-0.216819 0.43059,-0.280096 z m -0.459148,-1.416271 c 0.07756,-0.164768 0.178316,-0.36124 0.223904,-0.436605 0.06699,-0.110737 0.08297,-0.16277 0.08332,-0.27121 0.0016,-0.49656 0.227416,-0.921024 0.589754,-1.108347 0.310279,-0.160412 0.857846,-0.28156 1.417227,-0.313561 0.251544,-0.01439 0.272911,-0.01962 0.272911,-0.06678 0,-0.04899 -0.01102,-0.05044 -0.260781,-0.03412 -0.639498,0.04179 -1.183654,0.151046 -1.478068,0.29674 -0.08455,0.04185 -0.211887,0.134235 -0.282956,0.205314 -0.24097,0.241001 -0.336754,0.515737 -0.327944,0.940633 l 0.0054,0.259297 -0.210281,0.317901 c -0.172863,0.261335 -0.21033,0.33502 -0.210554,0.414101 -1.47e-4,0.05291 0.0081,0.09619 0.01841,0.09619 0.01029,0 0.08215,-0.134809 0.159695,-0.299575 z m 0.795369,-0.322518 c 0.400743,-0.633091 0.68851,-0.981319 0.969836,-1.173603 0.08259,-0.05646 0.140302,-0.102645 0.128227,-0.102645 -0.06021,10e-6 -0.433817,0.287346 -0.612909,0.471386 -0.318631,0.327437 -0.777847,0.957341 -0.742286,1.018186 0.04228,0.07233 0.113961,0.01285 0.257132,-0.213322 z M 12.877902,17.419163 C 12.286647,17.365093 11.774357,17.243017 11.44185,17.07695 11.14828,16.930331 10.975862,16.807273 10.758348,16.589125 10.53402,16.364145 10.39594,16.160538 10.259868,15.854086 10.027778,15.33139 9.9896953,14.964613 9.9952343,13.305392 c 0.0022,-0.677247 0.01318,-1.38143 0.02425,-1.564852 l 0.02016,-0.333491 0.05541,0.878247 c 0.131251,2.08054 0.263619,3.099109 0.457104,3.517381 0.394459,0.852748 1.115227,1.282473 2.653248,1.581885 l 0.303233,0.05903 -0.194069,-0.0011 c -0.106749,-6.21e-4 -0.303234,-0.01113 -0.436656,-0.02331 z m 1.729702,-1.240602 c -0.0093,-0.04233 -0.02416,-0.151996 -0.033,-0.243706 -0.02362,-0.244701 -0.146733,-0.740537 -0.250768,-1.009892 -0.166104,-0.430053 -0.433589,-0.846333 -0.70816,-1.102094 -0.353945,-0.3297 -0.948363,-0.6801 -1.683855,-0.992606 -0.543924,-0.231111 -0.740846,-0.328922 -0.9273,-0.460591 -0.174566,-0.123276 -0.432195,-0.406889 -0.514328,-0.566212 -0.05504,-0.106761 -0.04738,-0.101268 0.117111,0.084 0.287545,0.323871 0.494523,0.440374 1.295518,0.729213 0.916502,0.330492 1.437966,0.627371 1.877514,1.068902 0.440375,0.442364 0.721294,1.042286 0.819248,1.749565 0.03788,0.273449 0.04474,0.910467 0.008,0.743415 z"
       id="path4613-01-5"
       inkscape:connector-curvature="0" />
    <path
       style="fill:#70ad40;fill-opacity:1;stroke-width:0.02494622"
       d="m 34.608579,20.802495 c -0.939914,-0.157313 -1.704115,-0.796777 -2.035962,-1.703639 -0.179461,-0.490426 -0.212165,-0.994439 -0.107263,-1.653141 0.261655,-1.643093 0.323637,-3.135193 0.169265,-4.074745 -0.08132,-0.494912 -0.358721,-1.20558 -0.658867,-1.687907 -0.477865,-0.767916 -1.253545,-1.488734 -2.080959,-1.93378 -0.133422,-0.07176 -0.234699,-0.130668 -0.225057,-0.130895 0.04044,-9.85e-4 0.609926,0.270365 0.867909,0.413499 1.072785,0.5952 1.878973,1.439181 2.40238,2.514991 0.201385,0.413928 0.338879,0.945894 0.377627,1.461036 0.009,0.118156 0.02394,0.230416 0.03348,0.249475 0.01179,0.02361 0.06234,-0.03329 0.158536,-0.178469 l 0.141218,-0.213121 0.0044,-0.296117 c 0.0066,-0.438702 0.106267,-0.714344 0.352625,-0.974864 0.289681,-0.306336 0.954643,-0.497661 1.851204,-0.532637 l 0.384862,-0.01502 -0.01709,0.138613 c -0.103236,0.837046 -0.427601,1.590482 -0.832602,1.933998 -0.336587,0.28549 -0.758105,0.399382 -1.183084,0.319665 -0.193832,-0.03636 -0.301623,-0.07415 -0.301623,-0.105724 0,-0.04053 0.255484,-0.446318 0.430944,-0.684486 0.300055,-0.407293 0.618519,-0.711365 0.932354,-0.890222 0.193786,-0.110441 0.137925,-0.112333 -0.113985,-0.0038 -0.687975,0.296262 -1.315969,1.057022 -1.696481,2.055145 -0.07646,0.200556 -0.08107,0.231825 -0.09812,0.664425 -0.0099,0.24968 -0.01322,0.453964 -0.0076,0.453964 0.0057,0 0.100806,-0.0629 0.211322,-0.139807 0.226174,-0.157357 0.474616,-0.274126 0.749611,-0.352323 0.267895,-0.07617 0.868317,-0.09446 1.146251,-0.03491 1.002857,0.214886 1.767843,0.980321 2.039957,2.041149 0.04786,0.18654 0.05585,0.279545 0.05619,0.653594 3.42e-4,0.377346 -0.0073,0.466982 -0.05688,0.665265 -0.202954,0.812186 -0.679025,1.431965 -1.373995,1.788756 -0.349123,0.179235 -0.648893,0.254825 -1.055251,0.266093 -0.180121,0.0049 -0.389562,-0.0013 -0.465428,-0.014 z m 0.848524,-0.527769 c 0.865462,-0.188239 1.493699,-0.901611 1.609672,-1.827809 0.06443,-0.514506 -0.09545,-1.142909 -0.384483,-1.511188 -0.03146,-0.04009 -0.01404,0.0071 0.04023,0.108869 0.575782,1.080133 0.16246,2.436702 -0.903066,2.96396 -0.502532,0.248669 -1.159238,0.248152 -1.663368,-0.0013 -0.08456,-0.04185 -0.202468,-0.110849 -0.261996,-0.153333 -0.143639,-0.102513 -0.161974,-0.09823 -0.03487,0.0082 0.247345,0.206983 0.594511,0.370494 0.900552,0.424153 0.211529,0.03709 0.495521,0.03241 0.697316,-0.0115 z m -0.09703,-0.205196 c 0.396796,-0.08624 0.741227,-0.294691 1.02515,-0.620427 0.279301,-0.320439 0.432506,-0.669398 0.488242,-1.112078 0.05186,-0.411941 -0.04449,-0.903945 -0.24876,-1.270262 -0.117626,-0.210934 -0.460558,-0.570035 -0.665252,-0.696615 -0.32386,-0.200273 -0.740846,-0.306501 -1.091639,-0.278099 -0.812849,0.06581 -1.488027,0.653834 -1.714313,1.493019 -0.07682,0.284868 -0.07648,0.732911 7.21e-4,1.022932 0.274418,1.030414 1.241419,1.671129 2.205821,1.46153 z m -2.364319,-0.413414 c -0.257525,-0.425723 -0.370152,-0.810594 -0.38889,-1.328919 -0.01125,-0.310069 -0.0043,-0.413604 0.0502,-0.756772 0.07319,-0.460565 0.16816,-1.241105 0.213786,-1.757182 0.04896,-0.553903 0.04209,-1.83082 -0.01168,-2.167705 -0.08205,-0.514058 -0.222379,-0.97559 -0.428346,-1.408795 -0.114054,-0.239892 -0.35372,-0.658787 -0.390759,-0.682995 -0.01319,-0.0086 0.02095,0.05736 0.07585,0.146609 0.16133,0.262261 0.378583,0.753984 0.484478,1.096551 0.150616,0.487237 0.194817,0.808011 0.210611,1.528443 0.01956,0.89177 -0.05189,1.844604 -0.218284,2.911649 -0.06698,0.429489 -0.07767,0.560104 -0.07568,0.923518 0.0027,0.498067 0.04138,0.68934 0.217361,1.076006 0.09614,0.211235 0.308694,0.565805 0.339184,0.565805 0.0058,0 -0.0292,-0.0658 -0.07784,-0.146213 z m 0.993419,-3.842098 c 0.123012,-0.06328 0.310988,-0.138691 0.417727,-0.16759 0.39707,-0.107493 0.919508,-0.10805 1.309965,-0.0013 0.187942,0.05136 0.56864,0.228624 0.724347,0.337303 l 0.07619,0.05317 -0.07007,-0.06365 c -0.207933,-0.188837 -0.612014,-0.377175 -0.985173,-0.459178 -0.308175,-0.06773 -0.837446,-0.05372 -1.128028,0.02984 -0.24825,0.07139 -0.63635,0.267947 -0.830858,0.420794 -0.134816,0.105942 -0.151616,0.128928 -0.151616,0.207474 v 0.08833 l 0.206935,-0.165047 c 0.11381,-0.09078 0.30758,-0.216821 0.43059,-0.280097 z m -0.459147,-1.41627 c 0.07756,-0.164767 0.178314,-0.361239 0.223905,-0.436604 0.06699,-0.110736 0.08297,-0.162771 0.08332,-0.27121 0.0016,-0.49656 0.227416,-0.921025 0.589753,-1.108346 0.31028,-0.160412 0.857845,-0.28156 1.417228,-0.313563 0.251542,-0.01439 0.27291,-0.01962 0.27291,-0.06678 0,-0.04899 -0.01102,-0.05044 -0.260781,-0.03412 -0.639498,0.04179 -1.183655,0.151045 -1.478069,0.296738 -0.08455,0.04185 -0.211886,0.134235 -0.282956,0.205314 -0.24097,0.241003 -0.336754,0.515737 -0.327944,0.940633 l 0.0054,0.259299 -0.210281,0.317901 c -0.172864,0.261334 -0.21033,0.335019 -0.210556,0.414101 -1.46e-4,0.05291 0.0081,0.09619 0.01841,0.09619 0.01029,0 0.08215,-0.134809 0.159696,-0.299576 z m 0.79537,-0.322516 c 0.400742,-0.633092 0.688508,-0.981321 0.969835,-1.173604 0.08259,-0.05646 0.140302,-0.102655 0.128227,-0.102655 -0.06021,9e-6 -0.433817,0.287345 -0.61291,0.471387 -0.31863,0.327435 -0.777847,0.957339 -0.742285,1.018185 0.04228,0.07233 0.113961,0.01285 0.257133,-0.213324 z m -2.562693,-0.458929 c -0.591255,-0.05406 -1.103545,-0.176146 -1.436052,-0.342212 -0.293569,-0.14662 -0.465987,-0.269679 -0.683502,-0.487825 -0.224329,-0.224981 -0.362408,-0.428589 -0.49848,-0.735039 -0.232089,-0.522697 -0.270173,-0.889473 -0.264634,-2.5486947 0.0022,-0.6772458 0.01319,-1.3814296 0.02425,-1.5648502 l 0.02016,-0.333492 0.05541,0.8782467 c 0.131252,2.0805392 0.263619,3.0991092 0.457101,3.5173802 0.394459,0.852747 1.115227,1.282473 2.653248,1.581884 l 0.303233,0.05903 -0.194069,-0.0011 c -0.106738,-6.18e-4 -0.303234,-0.01113 -0.436656,-0.02331 z m 1.729704,-1.240602 c -0.0093,-0.04233 -0.02417,-0.151996 -0.03301,-0.243707 -0.0236,-0.2447 -0.146726,-0.740536 -0.250763,-1.009891 C 33.042531,10.692051 32.775047,10.27577 32.500477,10.02001 32.146532,9.69031 31.552112,9.3399093 30.816621,9.0274035 30.272697,8.796294 30.075776,8.6984822 29.889321,8.5668139 29.714754,8.4435382 29.457126,8.159925 29.374994,8.0006015 c -0.05504,-0.1067558 -0.04738,-0.1012649 0.117109,0.084002 0.287545,0.323872 0.494523,0.4403736 1.295518,0.7292124 0.916502,0.3304924 1.437968,0.6273704 1.877515,1.0689011 0.440375,0.442364 0.721293,1.042287 0.819248,1.749564 0.03788,0.273448 0.04474,0.910467 0.008,0.743416 z"
       id="path4613"
       inkscape:connector-curvature="0" />
    <path
       style="fill:#00ccff;stroke:#000000;stroke-width:0.3169401px;stroke-linecap:butt;stroke-linejoin:miter;stroke-opacity:1"
       d="M 14.087424,25.832083 14.586327,49.021208 69.695972,35.279505 69.849481,14.503357 Z"
       id="path5189"
       inkscape:connector-curvature="0"
       sodipodi:nodetypes="ccccc" />
    <path
       style="fill:#00aad4;stroke:#000000;stroke-width:0.31625274px;stroke-linecap:butt;stroke-linejoin:miter;stroke-opacity:1"
       d="M 14.285337,48.935906 4.4531673,42.837575 3.7609033,22.434594 13.787819,25.782989 Z"
       id="path5191"
       inkscape:connector-curvature="0"
       sodipodi:nodetypes="ccccc" />
    <g
       id="g5202"
       transform="matrix(1.1569328,-0.12660631,0.09389001,1.2300101,6.5565269,-13.736853)">
      <path
         style="fill:#76d275;fill-opacity:1;stroke-width:0.02547095"
         id="path3741"
         d="m 40.838783,31.663363 3.078099,2.643893 -3.078099,2.643893 -3.0781,-2.643893 z"
         class="light"
         inkscape:connector-curvature="0" />
      <path
         style="fill:#43a047;fill-opacity:1;stroke:none;stroke-width:0.02547095"
         id="path3743"
         d="m 37.760683,34.307256 v 2.643893 l 3.0781,2.643892 v -2.643892 z"
         class="regular"
         inkscape:connector-curvature="0" />
      <path
         style="fill:#76d275;fill-opacity:1;stroke-width:0.02547095"
         id="path3745"
         d="m 46.994983,31.663363 3.078099,2.643893 -3.078099,2.643893 -3.078101,-2.643893 z"
         class="light"
         inkscape:connector-curvature="0" />
      <path
         style="fill:#43a047;fill-opacity:1;stroke-width:0.02547095"
         id="path3747"
         d="m 50.073082,34.307256 v 2.643893 l -3.078099,2.643892 v -2.643892 z"
         class="regular"
         inkscape:connector-curvature="0" />
      <path
         style="fill:#43a047;fill-opacity:1;stroke-width:0.02547095"
         id="path3749"
         d="m 43.916882,34.307256 3.078101,2.643893 -3.078101,2.643892 -3.078099,-2.643892 z"
         class="regular"
         inkscape:connector-curvature="0" />
      <path
         style="fill:#00701a;fill-opacity:1;stroke-width:0.02547095"
         id="path3751"
         d="m 43.916882,39.595041 v 2.643893 l -3.078099,-2.643893 v -2.643892 z"
         class="dark-left"
         inkscape:connector-curvature="0" />
      <path
         style="fill:#004300;fill-opacity:1;stroke-width:0.02547095"
         id="path3753"
         d="m 43.916882,39.595041 3.078101,-2.643892 v 2.643892 l -3.078101,2.643893 z"
         class="dark-right"
         inkscape:connector-curvature="0" />
    </g>
    <path
       style="fill:none;stroke:#000000;stroke-width:0.3190845px;stroke-linecap:butt;stroke-linejoin:miter;stroke-opacity:1"
       d="M 8.4191939,24.032237 8.7583995,45.605762 Z"
       id="path5208"
       inkscape:connector-curvature="0"
       sodipodi:nodetypes="ccc" />
    <g
       id="g3760"
       transform="translate(23.680209,-1.7859376)" />
    <g
       id="g3719"
       transform="translate(23.746355,0.23151043)" />
    <path
       style="fill:#70ad40;fill-opacity:1;stroke-width:0.02494622"
       d="m 25.327007,23.148963 c -0.939913,-0.157312 -1.704115,-0.796775 -2.035961,-1.703639 -0.179462,-0.490426 -0.212166,-0.994439 -0.107263,-1.653141 0.261654,-1.643092 0.323636,-3.135193 0.169265,-4.074744 -0.08132,-0.494912 -0.358721,-1.205581 -0.658867,-1.687908 -0.477862,-0.767917 -1.253542,-1.488734 -2.080957,-1.933779 -0.133423,-0.07176 -0.234699,-0.130668 -0.225057,-0.130895 0.04044,-9.84e-4 0.609927,0.270365 0.867909,0.413499 1.072784,0.595199 1.878973,1.43918 2.402379,2.514991 0.201385,0.413927 0.33888,0.945895 0.377628,1.461036 0.009,0.118156 0.02395,0.230416 0.03348,0.249475 0.01179,0.02361 0.06234,-0.03329 0.158536,-0.178469 l 0.141218,-0.213121 0.0044,-0.296118 c 0.0066,-0.438702 0.106267,-0.714343 0.352625,-0.974863 0.289679,-0.306336 0.954643,-0.497662 1.851203,-0.532638 l 0.384862,-0.01502 -0.0171,0.138613 c -0.103236,0.837046 -0.4276,1.590482 -0.832602,1.933998 -0.336585,0.285491 -0.758105,0.399382 -1.183083,0.319665 -0.193831,-0.03636 -0.301624,-0.07415 -0.301624,-0.105724 0,-0.04053 0.255484,-0.446317 0.430944,-0.684486 0.300057,-0.407293 0.61852,-0.711365 0.932354,-0.890222 0.193786,-0.110441 0.137925,-0.112333 -0.113984,-0.0038 -0.687976,0.29626 -1.31597,1.05702 -1.696482,2.055144 -0.07645,0.200555 -0.08107,0.231824 -0.09812,0.664424 -0.0098,0.24968 -0.01322,0.453964 -0.0076,0.453964 0.0057,0 0.100806,-0.0629 0.211323,-0.139806 0.226172,-0.157358 0.474615,-0.274127 0.749609,-0.352323 0.267895,-0.07617 0.868318,-0.09446 1.146251,-0.03491 1.002858,0.214885 1.767843,0.98032 2.039957,2.041149 0.04786,0.186539 0.05585,0.279544 0.05619,0.653593 3.39e-4,0.377346 -0.0073,0.466985 -0.05687,0.665266 -0.202955,0.812185 -0.679025,1.431966 -1.373995,1.788757 -0.349124,0.179236 -0.648894,0.254825 -1.055252,0.266093 -0.180121,0.0049 -0.389562,-0.0013 -0.465426,-0.014 z m 0.848524,-0.527769 c 0.865462,-0.188239 1.4937,-0.901611 1.609672,-1.827808 0.06443,-0.514507 -0.09545,-1.142909 -0.384482,-1.511189 -0.03148,-0.04009 -0.01404,0.0071 0.04023,0.108869 0.575781,1.080133 0.162459,2.436703 -0.903067,2.96396 -0.502532,0.248669 -1.159237,0.248152 -1.663366,-0.0013 -0.08456,-0.04185 -0.202468,-0.110849 -0.261998,-0.153332 -0.143639,-0.102514 -0.161973,-0.09823 -0.03487,0.0082 0.247343,0.206983 0.594509,0.370495 0.900551,0.424154 0.211529,0.03709 0.495521,0.03241 0.697316,-0.0115 z m -0.09703,-0.205195 c 0.396796,-0.08624 0.741227,-0.294692 1.025149,-0.620427 0.279302,-0.320439 0.432507,-0.669399 0.488242,-1.112079 0.05187,-0.411941 -0.04449,-0.903945 -0.24876,-1.270262 -0.117625,-0.210934 -0.460557,-0.570034 -0.665251,-0.696615 -0.32386,-0.200272 -0.740846,-0.306501 -1.091639,-0.278099 -0.81285,0.06581 -1.488027,0.653835 -1.714314,1.493021 -0.07682,0.284867 -0.07648,0.732909 7.37e-4,1.02293 0.274417,1.030414 1.241419,1.67113 2.20582,1.461531 z m -2.364319,-0.413414 c -0.257525,-0.425723 -0.370152,-0.810595 -0.388888,-1.328919 -0.01125,-0.31007 -0.0043,-0.413604 0.0502,-0.756773 0.07319,-0.460564 0.168161,-1.241104 0.213786,-1.757182 0.04896,-0.553903 0.04209,-1.83082 -0.01168,-2.167704 -0.08205,-0.514059 -0.222377,-0.975591 -0.428346,-1.408796 -0.114054,-0.239892 -0.353719,-0.658787 -0.390758,-0.682995 -0.01318,-0.0086 0.02095,0.05736 0.07585,0.146609 0.16133,0.262261 0.378582,0.753985 0.484477,1.096551 0.150617,0.487238 0.194818,0.808011 0.210611,1.528444 0.01956,0.891769 -0.05189,1.844603 -0.218283,2.911648 -0.06698,0.42949 -0.07768,0.560104 -0.07568,0.923518 0.0027,0.498068 0.04138,0.689341 0.217362,1.076007 0.09613,0.211234 0.308692,0.565804 0.339182,0.565804 0.0058,0 -0.0292,-0.0658 -0.07783,-0.146212 z m 0.993421,-3.842099 c 0.12301,-0.06327 0.310986,-0.138691 0.417725,-0.16759 0.397071,-0.107493 0.919509,-0.10805 1.309966,-0.0013 0.187941,0.05136 0.568639,0.228624 0.724347,0.337303 l 0.07619,0.05317 -0.07007,-0.06365 c -0.207933,-0.188838 -0.612015,-0.377176 -0.985173,-0.459179 -0.308176,-0.06773 -0.837447,-0.05372 -1.128028,0.02984 -0.248251,0.07139 -0.63635,0.267947 -0.830859,0.420793 -0.134815,0.105942 -0.151616,0.128929 -0.151616,0.207475 v 0.08833 l 0.206935,-0.165047 c 0.113811,-0.09078 0.307581,-0.21682 0.430591,-0.280096 z m -0.459149,-1.416269 c 0.07756,-0.164767 0.178316,-0.361239 0.223905,-0.436605 0.06699,-0.110736 0.08297,-0.16277 0.08332,-0.27121 0.0016,-0.496559 0.227416,-0.921023 0.589753,-1.108346 0.31028,-0.160412 0.857846,-0.28156 1.417228,-0.313562 0.251544,-0.01439 0.272911,-0.01962 0.272911,-0.06678 0,-0.04899 -0.01102,-0.05044 -0.260781,-0.03412 -0.639498,0.04179 -1.183656,0.151045 -1.478069,0.296739 -0.08455,0.04185 -0.211886,0.134236 -0.282955,0.205313 -0.240972,0.241003 -0.336754,0.515738 -0.327946,0.940634 l 0.0054,0.259298 -0.21028,0.317901 c -0.172865,0.261334 -0.210331,0.33502 -0.210556,0.414101 -1.46e-4,0.05291 0.0081,0.09619 0.01841,0.09619 0.01029,0 0.08215,-0.134809 0.159696,-0.299576 z m 0.79537,-0.322517 c 0.400742,-0.633091 0.688509,-0.98132 0.969835,-1.173603 0.0826,-0.05646 0.140303,-0.102656 0.128228,-0.102656 -0.06021,9e-6 -0.433818,0.287345 -0.61291,0.471387 -0.31863,0.327435 -0.777846,0.957339 -0.742286,1.018187 0.04228,0.07233 0.113962,0.01285 0.257133,-0.213325 z m -2.562692,-0.458929 c -0.591256,-0.05406 -1.103546,-0.176146 -1.436052,-0.342212 -0.29357,-0.14662 -0.465988,-0.269678 -0.683502,-0.487825 -0.224328,-0.224981 -0.362408,-0.428587 -0.49848,-0.735039 -0.23209,-0.522697 -0.270173,-0.889473 -0.264635,-2.548693 0.0022,-0.677247 0.01318,-1.381431 0.02425,-1.564852 l 0.02016,-0.333492 0.05541,0.878248 c 0.131251,2.080538 0.263619,3.099108 0.457101,3.517379 0.394459,0.852747 1.115227,1.282473 2.653248,1.581884 l 0.303232,0.05903 -0.194068,-0.0011 c -0.106749,-6.21e-4 -0.303234,-0.01113 -0.436656,-0.02332 z m 1.729703,-1.240602 c -0.0093,-0.04233 -0.02416,-0.151996 -0.033,-0.243705 -0.02362,-0.244702 -0.146734,-0.740538 -0.25077,-1.009894 -0.166104,-0.430052 -0.433589,-0.846332 -0.70816,-1.102091 -0.353945,-0.3297 -0.948364,-0.680101 -1.683856,-0.992607 -0.543924,-0.23111 -0.740845,-0.328922 -0.9273,-0.46059 -0.174567,-0.123276 -0.432194,-0.406889 -0.514327,-0.566212 -0.05504,-0.106751 -0.04738,-0.101268 0.11711,0.084 0.287546,0.323872 0.494524,0.440373 1.295518,0.729212 0.916502,0.330493 1.437967,0.627371 1.877514,1.068902 0.440375,0.442362 0.721294,1.042284 0.819248,1.749562 0.03788,0.27345 0.04474,0.910467 0.008,0.743418 z"
       id="path4613-4"
       inkscape:connector-curvature="0" />
    <path
       style="fill:#70ad40;fill-opacity:1;stroke-width:0.02494622"
       d="M 52.002556,17.457678 C 51.062644,17.300366 50.298443,16.660903 49.966597,15.75404 49.787135,15.263613 49.754429,14.759601 49.859334,14.100899 50.12099,12.457805 50.182971,10.965705 50.0286,10.026153 49.947274,9.5312413 49.669875,8.8205736 49.36973,8.3382452 48.891867,7.5703284 48.116187,6.84951 47.288773,6.4044658 47.155351,6.332706 47.054075,6.2737981 47.063716,6.2735706 c 0.04044,-9.844e-4 0.609927,0.2703647 0.86791,0.4134985 1.072784,0.5951998 1.878973,1.439181 2.402377,2.5149922 0.201386,0.4139267 0.338881,0.9458947 0.377627,1.4610367 0.009,0.118157 0.02395,0.230416 0.03348,0.249474 0.01179,0.02361 0.06234,-0.03329 0.158536,-0.178468 l 0.141218,-0.213122 0.0044,-0.296117 c 0.0066,-0.438703 0.106268,-0.7143437 0.352625,-0.9748637 0.289714,-0.3063354 0.954676,-0.4976617 1.851238,-0.5326376 l 0.384861,-0.015016 -0.01709,0.1386128 c -0.103265,0.8370465 -0.427629,1.5904835 -0.832629,1.9339995 -0.336587,0.285491 -0.758105,0.399382 -1.183084,0.319665 -0.193832,-0.03636 -0.301625,-0.07415 -0.301625,-0.105724 0,-0.04053 0.255485,-0.446317 0.430946,-0.684485 0.300054,-0.407296 0.618517,-0.7113657 0.932354,-0.8902237 0.193786,-0.110441 0.137925,-0.112333 -0.113985,-0.0038 -0.687977,0.2962607 -1.31597,1.0570217 -1.696483,2.0551467 -0.07646,0.200554 -0.08107,0.231824 -0.09812,0.664424 -0.0099,0.24968 -0.01322,0.453962 -0.0076,0.453962 0.0057,0 0.100806,-0.0629 0.211323,-0.139805 0.226174,-0.157358 0.474616,-0.274126 0.74961,-0.352323 0.267895,-0.07617 0.868318,-0.09447 1.146252,-0.03491 1.002856,0.214887 1.767843,0.980322 2.039957,2.041149 0.04786,0.186541 0.05585,0.279545 0.05619,0.653594 3.38e-4,0.377347 -0.0073,0.466983 -0.05687,0.665266 -0.202954,0.812186 -0.679023,1.431965 -1.373994,1.788756 -0.349124,0.179235 -0.648892,0.254825 -1.055251,0.266093 -0.18012,0.0049 -0.389561,-0.0013 -0.465426,-0.014 z m 0.848525,-0.52777 c 0.865463,-0.188237 1.4937,-0.901611 1.609673,-1.827807 0.06443,-0.514507 -0.09545,-1.142909 -0.384483,-1.511189 -0.03146,-0.04009 -0.01404,0.0071 0.04023,0.108869 0.575781,1.080133 0.16246,2.436703 -0.903066,2.96396 -0.502532,0.248669 -1.159237,0.248153 -1.663369,-0.0013 -0.08457,-0.04185 -0.202467,-0.110848 -0.261995,-0.153332 -0.143639,-0.102513 -0.161973,-0.09823 -0.03487,0.0082 0.247343,0.206983 0.59451,0.370495 0.90055,0.424153 0.21153,0.03709 0.495522,0.03241 0.697316,-0.0115 z m -0.09703,-0.205194 c 0.396795,-0.08624 0.741226,-0.294691 1.02515,-0.620428 0.279301,-0.320438 0.432506,-0.669398 0.488242,-1.112078 0.05186,-0.41194 -0.04449,-0.903945 -0.24876,-1.270263 -0.117626,-0.210932 -0.460558,-0.570033 -0.665253,-0.696613 -0.323859,-0.200273 -0.740847,-0.306501 -1.091638,-0.2781 -0.812849,0.06581 -1.488028,0.653835 -1.714314,1.49302 -0.07682,0.284868 -0.07648,0.73291 7.36e-4,1.022931 0.274419,1.030414 1.241421,1.67113 2.20582,1.461531 z m -2.364318,-0.413415 c -0.257525,-0.425722 -0.370152,-0.810594 -0.388889,-1.328918 -0.01126,-0.31007 -0.0043,-0.413604 0.0502,-0.756773 0.07319,-0.460564 0.16816,-1.241105 0.213786,-1.757182 0.04896,-0.553903 0.04209,-1.83082 -0.01168,-2.167705 C 50.17111,9.786662 50.030777,9.3251303 49.824808,8.8919266 49.710754,8.6520335 49.471087,8.2331383 49.434049,8.2089303 c -0.01319,-0.00863 0.02095,0.057356 0.07585,0.146609 0.16133,0.2622609 0.378583,0.753985 0.484478,1.096551 0.150616,0.4872377 0.194817,0.8080117 0.210611,1.5284447 0.01956,0.89177 -0.05189,1.844603 -0.218284,2.911648 -0.06698,0.42949 -0.07767,0.560104 -0.07568,0.923518 0.0027,0.498067 0.04138,0.689341 0.217362,1.076007 0.09613,0.211235 0.308691,0.565804 0.339182,0.565804 0.0058,0 -0.0292,-0.0658 -0.07784,-0.146213 z m 0.993417,-3.842097 c 0.123012,-0.06327 0.310989,-0.138692 0.417726,-0.16759 0.397072,-0.107493 0.91951,-0.10805 1.309967,-0.0013 0.187942,0.05136 0.56864,0.228626 0.724348,0.337304 l 0.07619,0.05317 -0.07007,-0.06365 c -0.207933,-0.188837 -0.612014,-0.377177 -0.985174,-0.459178 -0.308175,-0.06773 -0.837445,-0.05372 -1.128027,0.02984 -0.24825,0.07139 -0.636349,0.267947 -0.830859,0.420793 -0.134815,0.105943 -0.151616,0.12893 -0.151616,0.207475 v 0.08833 l 0.206936,-0.165045 c 0.11381,-0.09079 0.307578,-0.216821 0.430589,-0.280098 z m -0.459147,-1.41627 c 0.07756,-0.164767 0.178315,-0.36124 0.223905,-0.436604 0.06699,-0.110738 0.08297,-0.162772 0.08332,-0.271212 0.0016,-0.496559 0.227416,-0.9210227 0.589754,-1.1083457 0.310281,-0.160412 0.857846,-0.2815601 1.417229,-0.3135623 0.251542,-0.014393 0.27291,-0.019625 0.27291,-0.06678 0,-0.048991 -0.01102,-0.050443 -0.260782,-0.034117 -0.639496,0.041794 -1.183654,0.1510462 -1.478069,0.2967403 -0.08455,0.04185 -0.211885,0.134234 -0.282955,0.205313 -0.24097,0.241002 -0.336755,0.5157377 -0.327944,0.9406337 l 0.0054,0.259297 -0.210281,0.317902 c -0.172864,0.261334 -0.21033,0.335019 -0.210556,0.414101 -1.46e-4,0.05291 0.0081,0.09619 0.01841,0.09619 0.01029,0 0.08215,-0.134809 0.159695,-0.299576 z m 0.795371,-0.322517 c 0.400742,-0.633092 0.688508,-0.981321 0.969834,-1.1736037 0.0826,-0.05646 0.140303,-0.102645 0.128227,-0.102645 -0.06021,9e-6 -0.433816,0.2873447 -0.612909,0.4713857 -0.31863,0.327437 -0.777846,0.95734 -0.742286,1.018187 0.04228,0.07233 0.113961,0.01284 0.257134,-0.213324 z m -2.562693,-0.45893 C 48.565426,10.217422 48.053136,10.09534 47.720628,9.929273 47.42706,9.782653 47.254642,9.659596 47.037127,9.4414483 46.812799,9.2164673 46.674719,9.0128609 46.538648,8.7064091 46.306557,8.183712 46.268474,7.8169359 46.274013,6.1577149 c 0.0022,-0.6772456 0.01319,-1.3814292 0.02425,-1.5648503 l 0.02016,-0.333492 0.05541,0.8782472 c 0.131251,2.0805389 0.263619,3.0991082 0.457101,3.5173798 0.394459,0.8527467 1.115227,1.2824734 2.653246,1.5818854 l 0.303235,0.05903 -0.19407,-0.0011 c -0.106748,-6.25e-4 -0.303231,-0.01113 -0.436655,-0.02332 z M 50.886385,9.0308835 C 50.877082,8.9885546 50.86222,8.8788872 50.853377,8.787178 50.829771,8.5424765 50.70665,8.0466403 50.602613,7.7772844 50.43651,7.3472324 50.169027,6.9309524 49.894455,6.6751916 49.540511,6.3454924 48.946091,5.9950922 48.2106,5.6825865 47.666676,5.451476 47.469754,5.3536647 47.2833,5.2219966 47.108733,5.0987201 46.851105,4.8151074 46.768973,4.655784 c -0.05504,-0.1067559 -0.04738,-0.1012649 0.11711,0.084002 0.287544,0.3238714 0.494523,0.4403739 1.295518,0.7292125 0.916501,0.3304921 1.437965,0.6273698 1.877513,1.0689011 0.440376,0.4423633 0.721294,1.0422855 0.819248,1.7495646 0.03788,0.2734493 0.04474,0.9104671 0.008,0.7434155 z"
       id="path4613-0"
       inkscape:connector-curvature="0" />
    <path
       style="fill:#70ad40;fill-opacity:1;stroke-width:0.02494622"
       d="M 43.01913,19.054124 C 42.079217,18.896811 41.315014,18.257348 40.983169,17.350485 40.803707,16.860059 40.771002,16.356045 40.875906,15.697344 41.137561,14.05425 41.199543,12.56215 41.045171,11.622598 40.963841,11.127686 40.686448,10.417017 40.386304,9.93469 39.90844,9.1667723 39.13276,8.4459545 38.305346,8.0009101 c -0.133424,-0.07176 -0.2347,-0.1306678 -0.225058,-0.1308953 0.04044,-9.844e-4 0.609926,0.2703651 0.867909,0.4134989 1.072784,0.5951997 1.878974,1.4391813 2.40238,2.5149923 0.201385,0.413928 0.338879,0.945895 0.377627,1.461036 0.009,0.118157 0.02395,0.230417 0.03348,0.249475 0.01179,0.02361 0.06234,-0.03329 0.158536,-0.178468 l 0.141218,-0.213121 0.0044,-0.296118 c 0.0066,-0.438702 0.106267,-0.714344 0.352625,-0.974864 0.289682,-0.306336 0.954644,-0.497661 1.851204,-0.532637 l 0.384863,-0.01502 -0.01709,0.138613 c -0.103236,0.837047 -0.427602,1.590484 -0.832603,1.934 -0.336586,0.285489 -0.758105,0.399382 -1.183085,0.319663 -0.19383,-0.03636 -0.301623,-0.07414 -0.301623,-0.105723 0,-0.04053 0.255485,-0.446316 0.430945,-0.684485 0.300056,-0.407296 0.618519,-0.711368 0.932353,-0.890226 0.193788,-0.11044 0.137926,-0.112332 -0.113984,-0.0038 -0.687976,0.296262 -1.315969,1.057024 -1.696482,2.055147 -0.07646,0.200555 -0.08107,0.231825 -0.09813,0.664425 -0.0099,0.24968 -0.01322,0.453962 -0.0076,0.453962 0.0057,0 0.100806,-0.0629 0.211322,-0.139805 0.226174,-0.157358 0.474616,-0.274126 0.749611,-0.352323 0.267895,-0.07617 0.868317,-0.09446 1.146251,-0.03491 1.002857,0.214887 1.767842,0.980322 2.039957,2.041149 0.04786,0.186541 0.05585,0.279546 0.05619,0.653595 3.38e-4,0.377345 -0.0073,0.466982 -0.05686,0.665265 -0.202954,0.812186 -0.679025,1.431965 -1.373995,1.788756 -0.349124,0.179235 -0.648893,0.254825 -1.055251,0.266092 -0.18012,0.0049 -0.389563,-0.0013 -0.465428,-0.014 z m 0.848525,-0.52777 c 0.865462,-0.188239 1.493699,-0.901612 1.609672,-1.827808 0.06443,-0.514506 -0.09545,-1.142909 -0.384483,-1.51119 -0.03148,-0.04009 -0.01404,0.0071 0.04023,0.10887 0.57578,1.080133 0.16246,2.436703 -0.903066,2.96396 -0.502532,0.248669 -1.159237,0.248152 -1.663368,-0.0013 -0.08457,-0.04185 -0.202468,-0.110849 -0.261995,-0.153332 -0.143641,-0.102513 -0.161975,-0.09823 -0.03487,0.0082 0.247344,0.206983 0.594508,0.370495 0.90055,0.424153 0.211531,0.03709 0.495521,0.03241 0.697316,-0.0115 z m -0.09703,-0.205195 c 0.396794,-0.08624 0.741225,-0.294691 1.025148,-0.620428 0.279301,-0.320438 0.432506,-0.669398 0.488241,-1.112078 0.05186,-0.41194 -0.04449,-0.903944 -0.248758,-1.270263 -0.117626,-0.210932 -0.460558,-0.570033 -0.665253,-0.696614 -0.323859,-0.200272 -0.740846,-0.306501 -1.091637,-0.278098 -0.812851,0.06581 -1.488029,0.653834 -1.714316,1.493019 -0.07682,0.284868 -0.07648,0.73291 7.38e-4,1.022931 0.274416,1.030415 1.241419,1.67113 2.205819,1.461531 z m -2.36432,-0.413415 c -0.257526,-0.425723 -0.370152,-0.810593 -0.388889,-1.328918 -0.01125,-0.31007 -0.0043,-0.413604 0.0502,-0.756772 0.07319,-0.460566 0.168162,-1.241105 0.213788,-1.757182 0.04896,-0.553905 0.04209,-1.830821 -0.01168,-2.167705 -0.08205,-0.514059 -0.222377,-0.975592 -0.428346,-1.408797 -0.114054,-0.239892 -0.35372,-0.658787 -0.390758,-0.682995 -0.01319,-0.0086 0.02095,0.05736 0.07585,0.146609 0.16133,0.262261 0.378582,0.753985 0.484478,1.096552 0.150616,0.487238 0.194817,0.808011 0.210612,1.528443 0.01956,0.89177 -0.05187,1.844604 -0.218285,2.91165 -0.06698,0.429488 -0.07767,0.560104 -0.07568,0.923517 0.0027,0.498067 0.04138,0.689341 0.21736,1.076007 0.09613,0.211234 0.308693,0.565805 0.339182,0.565805 0.0058,0 -0.0292,-0.0658 -0.07783,-0.146214 z m 0.99342,-3.842097 c 0.12301,-0.06328 0.310988,-0.138693 0.417725,-0.16759 0.397071,-0.107493 0.919511,-0.10805 1.309966,-0.0013 0.187941,0.05136 0.56864,0.228627 0.724347,0.337305 l 0.07619,0.05317 -0.07007,-0.06365 c -0.207932,-0.188838 -0.612014,-0.377177 -0.985173,-0.45918 -0.308175,-0.06773 -0.837444,-0.05372 -1.128028,0.02984 -0.248249,0.07139 -0.636348,0.267948 -0.830858,0.420794 -0.134816,0.105942 -0.151617,0.128929 -0.151617,0.207473 v 0.08833 l 0.206936,-0.165046 c 0.113811,-0.09077 0.30758,-0.21682 0.43059,-0.280097 z m -0.459148,-1.416271 c 0.07756,-0.164767 0.178316,-0.361239 0.223904,-0.436603 0.06699,-0.110736 0.08297,-0.16277 0.08332,-0.271211 0.0016,-0.496561 0.227416,-0.921025 0.589753,-1.108346 0.310279,-0.160412 0.857846,-0.281561 1.417227,-0.313563 0.251544,-0.01439 0.272911,-0.01962 0.272911,-0.06678 0,-0.04899 -0.01102,-0.05044 -0.26078,-0.03412 -0.639499,0.04179 -1.183656,0.151046 -1.478069,0.296739 -0.08455,0.04185 -0.211887,0.134236 -0.282956,0.205314 -0.24097,0.241002 -0.336755,0.515737 -0.327945,0.940635 l 0.0054,0.259298 -0.210281,0.3179 c -0.172864,0.261334 -0.210331,0.335019 -0.210555,0.414101 -1.47e-4,0.05291 0.0081,0.09619 0.01841,0.09619 0.01029,0 0.08215,-0.13481 0.159695,-0.299576 z m 0.795369,-0.322516 c 0.400743,-0.633091 0.68851,-0.98132 0.969837,-1.173604 0.08259,-0.05646 0.140301,-0.102644 0.128226,-0.102644 -0.06021,8e-6 -0.433817,0.287344 -0.612909,0.471386 -0.318631,0.327436 -0.777847,0.957339 -0.742286,1.018186 0.04228,0.07233 0.113961,0.01285 0.257132,-0.213324 z m -2.562693,-0.458929 c -0.591255,-0.05407 -1.103544,-0.176146 -1.436052,-0.342212 -0.29357,-0.14662 -0.465987,-0.269679 -0.683502,-0.487825 -0.224328,-0.224981 -0.362408,-0.428589 -0.49848,-0.73504 -0.23209,-0.522697 -0.270173,-0.8894737 -0.264634,-2.5486949 0.0022,-0.6772454 0.01318,-1.381429 0.02425,-1.5648499 l 0.02016,-0.3334922 0.05541,0.8782473 c 0.131251,2.0805388 0.263619,3.0991087 0.457101,3.5173807 0.394459,0.852746 1.115227,1.282473 2.653248,1.581885 l 0.303233,0.05903 -0.194069,-0.0011 c -0.106749,-6.22e-4 -0.303234,-0.01113 -0.436656,-0.02332 z m 1.729703,-1.240603 c -0.0093,-0.04233 -0.02416,-0.151996 -0.033,-0.243706 C 41.846342,10.138921 41.723227,9.643085 41.619191,9.3737283 41.453083,8.9436767 41.185598,8.5273969 40.911028,8.2716361 40.557082,7.9419366 39.962663,7.5915364 39.227172,7.2790307 38.683247,7.0479205 38.486326,6.9501092 38.299871,6.8184412 38.125305,6.6951646 37.867677,6.4115519 37.785544,6.2522285 c -0.05504,-0.1067559 -0.04738,-0.101265 0.11711,0.084002 0.287546,0.3238715 0.494524,0.4403739 1.295518,0.7292125 0.916503,0.3304919 1.437967,0.6273696 1.877514,1.0689009 0.440377,0.4423635 0.721295,1.0422864 0.819249,1.7495651 0.03788,0.273449 0.04474,0.910468 0.008,0.743416 z"
       id="path4613-5"
       inkscape:connector-curvature="0" />
    <path
       style="fill:#85502f;fill-opacity:1;stroke-width:0.358172"
       id="path4673"
       d="m 38.084585,17.340741 c 0.331569,0.155823 0.670299,0.286187 1.015378,0.387017 0.08705,0.02544 0.174749,0.04742 0.262124,0.07113 0.216873,0.06219 0.437173,0.103066 0.655022,0.159116 0.08626,0.02219 0.16895,0.03704 0.243749,0.09948 0.02816,0.0235 0.04879,0.05858 0.07318,0.08786 0.01696,0.03826 0.03695,0.07465 0.05088,0.114759 0.04748,0.136716 0.06473,0.289634 0.08812,0.434326 0.02751,0.170244 0.02231,0.136339 0.05504,0.30132 0.04317,0.189688 0.10743,0.383198 0.233279,0.511716 0.01891,0.01929 0.04026,0.03455 0.0604,0.05182 0.08616,0.06684 0.182479,0.103946 0.282719,0.118036 0.09098,0.0015 0.178027,0.03666 0.26603,0.06135 0.02745,0.01524 0.103909,0.01193 0.125465,0.04016 0.0045,0.0059 0.0063,0.01435 0.0094,0.02159 0,0 -0.261612,0.18356 -0.261612,0.18356 v 0 c -0.02851,-0.0139 -0.08245,-0.02332 -0.117598,-0.03469 -0.08781,-0.02521 -0.175099,-0.0538 -0.265687,-0.05768 -0.10263,-0.02063 -0.200817,-0.06342 -0.288197,-0.134919 -0.0208,-0.01899 -0.04288,-0.03602 -0.06243,-0.05697 -0.127308,-0.1364 -0.194589,-0.334406 -0.238971,-0.531075 -0.03176,-0.161032 -0.02851,-0.137592 -0.05544,-0.303112 -0.02292,-0.140795 -0.03944,-0.290004 -0.08526,-0.423273 -0.01262,-0.03672 -0.03102,-0.06996 -0.04653,-0.104963 -0.02234,-0.02611 -0.04136,-0.05756 -0.06708,-0.07833 -0.06998,-0.05648 -0.156547,-0.07465 -0.235584,-0.0961 -0.216127,-0.05868 -0.434781,-0.102311 -0.650411,-0.164053 -0.0876,-0.02396 -0.175502,-0.04628 -0.262812,-0.07187 -0.348562,-0.102106 -0.69023,-0.234277 -1.028423,-0.38014 0,0 0.245204,-0.2061 0.245204,-0.2061 z"
       inkscape:connector-curvature="0" />
    <path
       style="fill:#85502f;fill-opacity:1;stroke-width:0.35361567"
       id="path4675"
       d="m 46.20225,16.034755 c 0.29812,-0.04514 0.601571,-0.01366 0.895292,0.04914 0.08719,0.01863 0.173155,0.04305 0.25973,0.06457 0.353038,0.106618 0.716287,0.219346 1.025964,0.433671 0.03882,0.02686 0.07459,0.05821 0.111893,0.08732 0.173481,0.150443 0.245138,0.363407 0.333348,0.571724 0.07083,0.166534 0.17202,0.317184 0.3151,0.42417 0.02549,0.01905 0.05314,0.03471 0.07972,0.05206 0.154978,0.0887 0.327328,0.135156 0.493987,0.19343 0.10267,0.03056 0.203816,0.06788 0.308162,0.09194 0,0 -0.264745,0.191314 -0.264745,0.191314 v 0 c -0.103502,-0.02763 -0.204688,-0.06416 -0.306868,-0.0965 -0.168461,-0.05907 -0.342694,-0.107022 -0.497512,-0.200734 -0.02722,-0.01852 -0.05558,-0.03534 -0.08167,-0.05556 -0.144931,-0.112217 -0.248776,-0.267063 -0.321831,-0.437782 -0.08758,-0.204058 -0.154049,-0.409444 -0.323409,-0.558408 -0.03621,-0.02848 -0.07097,-0.05912 -0.108655,-0.08547 -0.30546,-0.213672 -0.664442,-0.326498 -1.01445,-0.42965 -0.08652,-0.02068 -0.172425,-0.04443 -0.259563,-0.06204 -0.295832,-0.05982 -0.601698,-0.08606 -0.900079,-0.03169 0,0 0.255572,-0.201502 0.255572,-0.201502 z"
       inkscape:connector-curvature="0" />
    <path
       style="fill:#85502f;fill-opacity:1;stroke-width:0.34207508"
       id="path4677"
       d="m 55.35185,14.064659 c 0.225781,0.03703 0.449633,0.08439 0.672219,0.138749 0.137685,0.03675 0.275033,0.07567 0.408921,0.126053 0.02645,0.01 0.05347,0.0186 0.07895,0.0311 0.02615,0.01277 0.05033,0.02973 0.07549,0.04459 0.192023,0.138387 0.29795,0.35865 0.402929,0.570529 0.133697,0.266428 0.280889,0.527352 0.473661,0.75131 0.111109,0.129075 0.150624,0.156588 0.273419,0.26434 0.129424,0.0958 0.269958,0.182132 0.426078,0.217221 0.05805,0.01304 0.08781,0.01304 0.145862,0.01706 0.122727,0.0026 0.245377,-0.0032 0.367377,-0.01711 0.05954,-0.01055 0.116145,-0.03481 0.176996,-0.02997 0.02256,0.0027 0.01218,0.001 0.0313,0.0046 0,0 -0.253699,0.189958 -0.253699,0.189958 v 0 c -0.01749,-0.0016 -0.0079,-9.5e-4 -0.02885,-0.0018 -0.05857,0.0033 -0.114325,0.02711 -0.172933,0.03146 -0.12279,0.01198 -0.246376,0.01737 -0.36964,0.01158 -0.06043,-0.0064 -0.08797,-0.0071 -0.148204,-0.02309 -0.157047,-0.04191 -0.298037,-0.132322 -0.427926,-0.231995 -0.121685,-0.109842 -0.163422,-0.140677 -0.273991,-0.270669 -0.192774,-0.226645 -0.340697,-0.489142 -0.478862,-0.755307 -0.105986,-0.204029 -0.210449,-0.419137 -0.399294,-0.551077 -0.02439,-0.01359 -0.04801,-0.02886 -0.07316,-0.04076 -0.02532,-0.01198 -0.0518,-0.02091 -0.07793,-0.0307 -0.132739,-0.04975 -0.268768,-0.08884 -0.405347,-0.124723 -0.223585,-0.05446 -0.448633,-0.101237 -0.676084,-0.133863 0,0 0.252701,-0.187469 0.252701,-0.187469 z"
       inkscape:connector-curvature="0" />
    <path
       style="fill:#85502f;fill-opacity:1;stroke-width:0.35558331"
       id="path4681"
       d="m 29.085434,19.223787 c 0.215804,0.02253 0.428674,0.06346 0.639285,0.118299 0.101268,0.03271 0.206506,0.05884 0.303232,0.106237 0.05274,0.02585 0.08657,0.05108 0.135844,0.08421 0.192388,0.135588 0.357781,0.307921 0.522363,0.479459 0.194316,0.209696 0.387829,0.419966 0.585854,0.625605 0.151793,0.146443 0.285472,0.31124 0.416361,0.478847 0.05662,0.07405 0.116374,0.145044 0.181877,0.210002 0.06994,0.05542 0.144987,0.103543 0.219712,0.151105 0.05277,0.03907 0.113477,0.06149 0.170509,0.09178 0.04738,0.02698 0.09085,0.06097 0.13894,0.0865 0,0 -0.266887,0.188757 -0.266887,0.188757 v 0 c -0.04626,-0.02799 -0.09033,-0.06008 -0.137804,-0.08578 -0.05831,-0.0294 -0.118573,-0.05473 -0.171721,-0.09475 -0.07581,-0.04998 -0.153446,-0.09793 -0.223589,-0.156975 -0.0655,-0.06679 -0.125428,-0.139191 -0.181568,-0.215291 -0.127912,-0.168381 -0.261151,-0.331547 -0.410983,-0.478022 -0.197555,-0.206138 -0.390824,-0.416715 -0.58585,-0.625605 -0.163553,-0.169953 -0.329263,-0.339302 -0.521899,-0.47103 -0.05326,-0.03444 -0.07668,-0.05223 -0.133062,-0.07861 -0.09611,-0.04497 -0.199,-0.07252 -0.299197,-0.104031 -0.210621,-0.05462 -0.423815,-0.09475 -0.640068,-0.112252 0,0 0.258651,-0.198472 0.258651,-0.198472 z"
       inkscape:connector-curvature="0" />
    <path
       style="fill:#85502f;fill-opacity:1;stroke-width:0.26458332"
       id="path4695"
       d="m 19.148194,21.049654 c 0.19825,0.0031 0.396567,-0.0021 0.594748,0.0042 0.158773,0.0031 0.310631,0.04276 0.460372,0.09157 0.157793,0.05806 0.287238,0.163358 0.415627,0.268382 0.09985,0.07457 0.189948,0.160019 0.277885,0.247837 0.07283,0.08894 0.118634,0.197388 0.166645,0.301055 0.05558,0.125856 0.108071,0.25308 0.15978,0.380572 0.0326,0.07519 0.06146,0.151601 0.09477,0.226482 0.02057,0.04893 0.05297,0.09016 0.09133,0.126204 0.05125,0.06085 0.119958,0.100915 0.188763,0.138673 0.106862,0.0524 0.215574,0.100802 0.324105,0.149561 0.06999,0.02286 0.12793,0.06272 0.18138,0.112033 0.03524,0.03766 0.08219,0.04539 0.128582,0.06012 0.04632,0.01068 0.08557,0.03441 0.119779,0.06665 0.03878,0.03702 0.08865,0.0579 0.135388,0.08264 0.0096,0.0086 0.02014,0.01628 0.02871,0.0259 0.05585,0.06269 0.101977,0.143118 0.154271,0.210307 0.008,0.0086 0.01609,0.01717 0.02413,0.02576 0,0 -0.297788,0.180408 -0.297788,0.180408 v 0 c -0.0083,-0.0095 -0.0166,-0.01902 -0.02491,-0.02853 -0.04895,-0.06461 -0.09473,-0.146438 -0.151064,-0.203377 -0.0074,-0.0075 -0.01675,-0.01283 -0.02512,-0.01925 -0.0495,-0.02555 -0.09969,-0.05102 -0.140412,-0.08986 -0.03221,-0.02756 -0.07021,-0.04368 -0.111319,-0.05383 -0.05119,-0.0147 -0.0984,-0.03461 -0.136652,-0.07333 -0.05157,-0.04604 -0.108779,-0.08021 -0.174242,-0.103648 -0.109058,-0.04936 -0.218009,-0.09907 -0.325278,-0.152222 -0.07132,-0.03994 -0.141387,-0.08262 -0.195635,-0.145025 -0.04061,-0.03995 -0.07501,-0.08558 -0.09767,-0.13822 -0.03303,-0.07553 -0.06172,-0.152424 -0.09378,-0.228363 -0.0507,-0.127258 -0.101928,-0.25438 -0.158117,-0.379335 -0.04698,-0.09975 -0.091,-0.20468 -0.162204,-0.289868 -0.08582,-0.08784 -0.175303,-0.171854 -0.273179,-0.246421 -0.12588,-0.102486 -0.25395,-0.203725 -0.409861,-0.256771 -0.147424,-0.04687 -0.297169,-0.08303 -0.453026,-0.0848 -0.19891,-0.0051 -0.397946,-0.0021 -0.596902,-0.0014 0,0 0.28088,-0.204072 0.28088,-0.204072 z"
       inkscape:connector-curvature="0" />
    <path
       style="fill:#85502f;fill-opacity:1;stroke-width:0.26458332"
       id="path4697"
       d="m 10.659219,22.843096 c 0.185391,0.144736 0.365598,0.296627 0.542215,0.451947 0.12306,0.109721 0.248472,0.216628 0.367555,0.330701 0.05429,0.04591 0.102691,0.09808 0.151718,0.149405 0.03949,0.04184 0.07469,0.08609 0.108901,0.132279 0.0813,0.110501 0.174718,0.211869 0.27046,0.309935 0.06778,0.06956 0.139172,0.137853 0.23281,0.168988 0.09643,0.01605 0.191757,0.03658 0.288608,0.05032 0.165785,0.01815 0.332524,0.02338 0.498323,0.04156 0.155718,0.01699 0.303901,0.06603 0.451549,0.115536 0.148844,0.05829 0.299383,0.112094 0.448265,0.170266 0.082,0.04182 0.17502,0.06881 0.249498,0.124056 0.03505,0.02785 0.0756,0.047 0.112669,0.07182 0.04035,0.03277 0.07849,0.06824 0.118908,0.100908 0.05602,0.04423 0.106137,0.09494 0.1574,0.144421 0.05552,0.0483 0.105691,0.102854 0.170676,0.138566 0,0 -0.292613,0.189283 -0.292613,0.189283 v 0 c -0.06383,-0.04152 -0.117074,-0.09552 -0.174044,-0.145673 -0.05084,-0.0487 -0.101644,-0.09758 -0.156785,-0.141459 -0.03923,-0.03228 -0.07677,-0.06662 -0.117237,-0.09741 -0.03817,-0.02376 -0.07819,-0.04476 -0.113259,-0.07323 -0.07444,-0.05005 -0.161847,-0.0799 -0.242187,-0.118715 -0.148276,-0.05809 -0.297885,-0.112721 -0.446814,-0.169101 -0.146143,-0.04834 -0.293373,-0.09414 -0.447405,-0.109352 -0.166254,-0.01708 -0.333402,-0.02263 -0.499381,-0.04243 -0.09893,-0.01468 -0.198488,-0.03045 -0.295425,-0.05491 -0.09409,-0.0402 -0.168268,-0.110031 -0.238183,-0.183478 -0.09643,-0.09967 -0.190977,-0.201851 -0.275178,-0.312169 -0.03408,-0.04448 -0.06907,-0.08745 -0.107234,-0.128547 -0.04858,-0.05092 -0.09666,-0.102463 -0.149387,-0.149195 -0.117373,-0.114493 -0.241023,-0.222091 -0.363004,-0.33161 -0.175568,-0.15444 -0.354179,-0.309269 -0.543835,-0.446075 0,0 0.292416,-0.186642 0.292416,-0.186642 z"
       inkscape:connector-curvature="0" />
    <g
       aria-label="Planter"
       transform="matrix(0.99545927,-0.2267506,0.09277206,0.98342937,0.52916667,1.190625)"
       style="font-style:normal;font-weight:normal;font-size:10.98185349px;line-height:1.25;font-family:sans-serif;letter-spacing:0px;word-spacing:0px;fill:#000000;fill-opacity:1;stroke:none;stroke-width:0.27454633"
       id="text4701">
      <path
         d="m 14.933966,40.389814 v 3.131544 h -1.05636 v -7.807411 h 2.986764 q 1.2494,0 1.941128,0.643468 0.691728,0.643468 0.691728,1.694466 0,1.067084 -0.691728,1.70519 -0.691728,0.632743 -1.941128,0.632743 z m 0,-0.825784 h 1.930404 q 0.79361,0 1.185053,-0.423616 0.391443,-0.428979 0.391443,-1.077809 0,-0.64883 -0.396805,-1.083171 -0.391443,-0.434341 -1.179691,-0.434341 h -1.930404 z"
         style="font-style:normal;font-variant:normal;font-weight:normal;font-stretch:normal;font-family:Roboto;-inkscape-font-specification:Roboto;stroke-width:0.27454633"
         id="path4960"
         inkscape:connector-curvature="0" />
      <path
         d="m 21.856609,43.521358 h -1.05636 v -8.365083 h 1.05636 z"
         style="font-style:normal;font-variant:normal;font-weight:normal;font-stretch:normal;font-family:Roboto;-inkscape-font-specification:Roboto;stroke-width:0.27454633"
         id="path4962"
         inkscape:connector-curvature="0" />
      <path
         d="m 27.047251,43.521358 q -0.05362,-0.262749 -0.0858,-0.461152 -0.02681,-0.203764 -0.03217,-0.407529 -0.294922,0.418254 -0.772161,0.702452 -0.471877,0.278836 -1.018824,0.278836 -0.906218,0 -1.383457,-0.461152 -0.471876,-0.466514 -0.471876,-1.281573 0,-0.831147 0.670279,-1.297661 0.675641,-0.471876 1.828522,-0.471876 h 1.147517 v -0.573759 q 0,-0.509412 -0.311009,-0.804335 -0.31101,-0.300285 -0.879406,-0.300285 -0.509412,0 -0.831146,0.262749 -0.316372,0.257387 -0.316372,0.622019 h -1.0081 l -0.01072,-0.03217 q -0.03217,-0.632744 0.595207,-1.158243 0.632744,-0.525498 1.630119,-0.525498 0.986651,0 1.587221,0.504049 0.60057,0.498688 0.60057,1.442441 v 2.793724 q 0,0.311009 0.03217,0.60057 0.03217,0.28956 0.117969,0.568396 z M 25.2938,42.749197 q 0.573759,0 1.034911,-0.294923 0.461152,-0.294923 0.60057,-0.675641 V 40.83488 h -1.185053 q -0.638106,0 -1.024187,0.321734 -0.380718,0.321734 -0.380718,0.756075 0,0.38608 0.2413,0.611294 0.241301,0.225214 0.713177,0.225214 z"
         style="font-style:normal;font-variant:normal;font-weight:normal;font-stretch:normal;font-family:Roboto;-inkscape-font-specification:Roboto;stroke-width:0.27454633"
         id="path4964"
         inkscape:connector-curvature="0" />
      <path
         d="m 30.473717,37.719422 0.07507,0.86332 q 0.289561,-0.461152 0.723902,-0.713177 0.439703,-0.257387 0.997375,-0.257387 0.938391,0 1.453165,0.55231 0.514775,0.546947 0.514775,1.694465 v 3.662405 h -1.05636 v -3.640956 q 0,-0.766799 -0.305648,-1.088533 -0.300285,-0.321734 -0.922304,-0.321734 -0.45579,0 -0.809697,0.219851 -0.348545,0.219852 -0.557672,0.600571 v 4.230801 h -1.05636 v -5.801936 z"
         style="font-style:normal;font-variant:normal;font-weight:normal;font-stretch:normal;font-family:Roboto;-inkscape-font-specification:Roboto;stroke-width:0.27454633"
         id="path4966"
         inkscape:connector-curvature="0" />
      <path
         d="m 37.165784,36.319879 v 1.399543 h 1.099257 v 0.782886 h -1.099257 v 3.522987 q 0,0.40753 0.166229,0.573759 0.171591,0.16623 0.450427,0.16623 0.09116,0 0.198403,-0.02145 0.112607,-0.02145 0.198403,-0.05362 l 0.139418,0.723902 q -0.117969,0.09652 -0.348545,0.155505 -0.225214,0.06435 -0.45579,0.06435 -0.643468,0 -1.024187,-0.38608 -0.380718,-0.391443 -0.380718,-1.22259 V 38.502308 H 35.18712 v -0.782886 h 0.922304 v -1.399543 z"
         style="font-style:normal;font-variant:normal;font-weight:normal;font-stretch:normal;font-family:Roboto;-inkscape-font-specification:Roboto;stroke-width:0.27454633"
         id="path4968"
         inkscape:connector-curvature="0" />
      <path
         d="m 41.975707,43.633965 q -1.211865,0 -1.930404,-0.804335 -0.713177,-0.809697 -0.713177,-2.096633 v -0.235938 q 0,-1.238676 0.734626,-2.059098 0.739988,-0.825783 1.748088,-0.825783 1.174329,0 1.774899,0.707814 0.60057,0.707815 0.60057,1.887506 v 0.659555 h -3.764288 l -0.01609,0.02681 q 0.01609,0.836509 0.423616,1.378094 0.40753,0.536223 1.142156,0.536223 0.536223,0 0.938391,-0.150142 0.407529,-0.155505 0.702452,-0.423616 l 0.412892,0.686365 q -0.311009,0.305648 -0.820422,0.509413 -0.509412,0.203764 -1.233313,0.203764 z M 41.81484,38.443324 q -0.530861,0 -0.906218,0.450427 -0.375356,0.445066 -0.461152,1.120707 l 0.01073,0.02681 h 2.675754 V 39.90185 q 0,-0.622019 -0.332458,-1.040273 -0.332459,-0.418254 -0.986651,-0.418254 z"
         style="font-style:normal;font-variant:normal;font-weight:normal;font-stretch:normal;font-family:Roboto;-inkscape-font-specification:Roboto;stroke-width:0.27454633"
         id="path4970"
         inkscape:connector-curvature="0" />
      <path
         d="m 48.12619,38.652451 -0.541586,-0.03217 q -0.418254,0 -0.707815,0.198403 -0.284198,0.198403 -0.439703,0.557672 v 4.145006 h -1.05636 v -5.801936 h 0.943753 l 0.101883,0.847233 q 0.246662,-0.450428 0.605932,-0.702452 0.364632,-0.252025 0.836508,-0.252025 0.11797,0 0.225214,0.02145 0.107245,0.01609 0.176954,0.03754 z"
         style="font-style:normal;font-variant:normal;font-weight:normal;font-stretch:normal;font-family:Roboto;-inkscape-font-specification:Roboto;stroke-width:0.27454633"
         id="path4972"
         inkscape:connector-curvature="0" />
    </g>
    <path
       style="fill:none;stroke:#000000;stroke-width:0.26931611px;stroke-linecap:butt;stroke-linejoin:miter;stroke-opacity:1"
       d="m 17.324984,41.850341 36.378642,-8.40343 z"
       id="path4703"
       inkscape:connector-curvature="0" />
    <rect
       style="fill:#cccccc;fill-opacity:1;stroke:#9d9d9d;stroke-width:0.04636902;stroke-miterlimit:4;stroke-dasharray:none;stroke-opacity:1"
       id="rect4707"
       width="0.38326508"
       height="22.425959"
       x="11.00707"
       y="25.078817"
       ry="0.24994116"
       rx="0.18455371"
       transform="matrix(0.9999475,-0.01024641,0.00743207,0.99997238,0,0)" />
    <rect
       style="fill:#cccccc;fill-opacity:1;stroke:#9d9d9d;stroke-width:0.00644486;stroke-miterlimit:4;stroke-dasharray:none;stroke-opacity:1"
       id="rect4707-3-4-0"
       width="0.18014744"
       height="0.92490977"
       x="7.3328652"
       y="41.148212"
       ry="0.046946265"
       rx="0.09007372"
       transform="matrix(0.99928685,0.03775953,-0.00917352,0.99995792,0,0)" />
    <rect
       style="fill:#cccccc;fill-opacity:1;stroke:#9d9d9d;stroke-width:0.00800284;stroke-miterlimit:4;stroke-dasharray:none;stroke-opacity:1"
       id="rect4707-4-6"
       width="0.20834556"
       height="1.149263"
       x="41.571285"
       y="43.641514"
       ry="0.18290974"
       rx="0.10417278"
       transform="matrix(-0.80520058,0.59300255,0.92086096,0.38989112,0,0)" />
    <rect
       style="fill:#cccccc;fill-opacity:1;stroke:#9d9d9d;stroke-width:0.04238488;stroke-miterlimit:4;stroke-dasharray:none;stroke-opacity:1"
       id="rect4707-7"
       width="0.33925527"
       height="21.168495"
       x="7.1987495"
       y="23.759645"
       ry="0.23592654"
       rx="0.16336167"
       transform="matrix(0.9999403,-0.01092661,0.00696939,0.99997571,0,0)" />
    <rect
       style="fill:#cccccc;fill-opacity:1;stroke:#9d9d9d;stroke-width:0.04431387;stroke-miterlimit:4;stroke-dasharray:none;stroke-opacity:1"
       id="rect4707-1"
       width="0.35819075"
       height="21.915916"
       x="9.2671824"
       y="24.517611"
       ry="0.24425666"
       rx="0.17247967"
       transform="matrix(0.9999426,-0.01071437,0.00710746,0.99997474,0,0)" />
    <rect
       style="fill:#cccccc;fill-opacity:1;stroke:#9d9d9d;stroke-width:0.00644486;stroke-miterlimit:4;stroke-dasharray:none;stroke-opacity:1"
       id="rect4707-3-4"
       width="0.18014744"
       height="0.92490983"
       x="5.9870381"
       y="40.676262"
       ry="0.046946265"
       rx="0.09007372"
       transform="matrix(0.99928685,0.03775953,-0.00917352,0.99995792,0,0)" />
    <rect
       style="fill:#cccccc;fill-opacity:1;stroke:#9d9d9d;stroke-width:0.00800284;stroke-miterlimit:4;stroke-dasharray:none;stroke-opacity:1"
       id="rect4707-4-6-1"
       width="0.20834556"
       height="1.149263"
       x="41.574623"
       y="42.154461"
       ry="0.18290974"
       rx="0.10417278"
       transform="matrix(-0.80520058,0.59300255,0.92086097,0.38989111,0,0)" />
    <rect
       style="fill:#cccccc;fill-opacity:1;stroke:#9d9d9d;stroke-width:0.04329928;stroke-miterlimit:4;stroke-dasharray:none;stroke-opacity:1"
       id="rect4707-7-8"
       width="0.35945293"
       height="20.850384"
       x="5.828845"
       y="23.306282"
       ry="0.23238114"
       rx="0.17308743"
       transform="matrix(0.99994841,-0.01015763,0.00749704,0.9999719,0,0)" />
    <path
       style="fill:#cccccc;fill-opacity:1;stroke:#878787;stroke-width:0.09069376;stroke-linecap:butt;stroke-linejoin:miter;stroke-miterlimit:4;stroke-dasharray:none;stroke-opacity:1"
       d="m 13.720381,29.094051 -1.17369,-0.275998 c -0.396557,0.452438 -0.28557,0.800378 0,1.1253 l 1.180998,0.298155 z"
       id="path4745"
       inkscape:connector-curvature="0"
       sodipodi:nodetypes="ccccc" />
    <path
       style="fill:#cccccc;fill-opacity:1;stroke:#878787;stroke-width:0.09069376;stroke-linecap:butt;stroke-linejoin:miter;stroke-miterlimit:4;stroke-dasharray:none;stroke-opacity:1"
       d="m 13.822608,33.556915 -1.17369,-0.275998 c -0.396557,0.452438 -0.28557,0.800378 0,1.1253 l 1.180998,0.298155 z"
       id="path4745-7"
       inkscape:connector-curvature="0"
       sodipodi:nodetypes="ccccc" />
    <path
       style="fill:#cccccc;fill-opacity:1;stroke:#878787;stroke-width:0.09069376;stroke-linecap:butt;stroke-linejoin:miter;stroke-miterlimit:4;stroke-dasharray:none;stroke-opacity:1"
       d="m 14.007691,38.435608 -1.17369,-0.275998 c -0.396557,0.452438 -0.28557,0.800378 0,1.1253 l 1.180998,0.298155 z"
       id="path4745-5"
       inkscape:connector-curvature="0"
       sodipodi:nodetypes="ccccc" />
    <path
       style="fill:#cccccc;fill-opacity:1;stroke:#878787;stroke-width:0.09069376;stroke-linecap:butt;stroke-linejoin:miter;stroke-miterlimit:4;stroke-dasharray:none;stroke-opacity:1"
       d="m 14.074181,42.746529 -1.17369,-0.275998 c -0.396557,0.452438 -0.28557,0.800378 0,1.1253 l 1.180998,0.298155 z"
       id="path4745-56"
       inkscape:connector-curvature="0"
       sodipodi:nodetypes="ccccc" />
    <path
       style="fill:#cccccc;fill-opacity:1;stroke:#878787;stroke-width:0.08445898;stroke-linecap:butt;stroke-linejoin:miter;stroke-miterlimit:4;stroke-dasharray:none;stroke-opacity:1"
       d="m 4.3826993,40.165781 1.09293,0.257042 c 0.3692704,-0.421364 0.2659202,-0.745406 0,-1.048012 L 4.3758942,39.097134 Z"
       id="path4745-73-0"
       inkscape:connector-curvature="0"
       sodipodi:nodetypes="ccccc" />
    <path
       style="fill:#cccccc;fill-opacity:1;stroke:#878787;stroke-width:0.08445898;stroke-linecap:butt;stroke-linejoin:miter;stroke-miterlimit:4;stroke-dasharray:none;stroke-opacity:1"
       d="M 4.2746889,37.016408 5.367619,37.27345 c 0.3692704,-0.421364 0.2659202,-0.745406 0,-1.048012 L 4.2678838,35.947761 Z"
       id="path4745-73-0-6"
       inkscape:connector-curvature="0"
       sodipodi:nodetypes="ccccc" />
    <path
       style="fill:#cccccc;fill-opacity:1;stroke:#878787;stroke-width:0.08445898;stroke-linecap:butt;stroke-linejoin:miter;stroke-miterlimit:4;stroke-dasharray:none;stroke-opacity:1"
       d="m 4.0876001,31.687361 1.0929302,0.257042 c 0.3692704,-0.421364 0.2659202,-0.745406 0,-1.048012 L 4.080795,30.618714 Z"
       id="path4745-73-0-6-0"
       inkscape:connector-curvature="0"
       sodipodi:nodetypes="ccccc" />
    <path
       style="fill:#cccccc;fill-opacity:1;stroke:#878787;stroke-width:0.08445898;stroke-linecap:butt;stroke-linejoin:miter;stroke-miterlimit:4;stroke-dasharray:none;stroke-opacity:1"
       d="m 3.9589767,27.244005 1.0929302,0.257042 c 0.3692704,-0.421364 0.2659202,-0.745406 0,-1.048012 L 3.9521716,26.175358 Z"
       id="path4745-73-0-6-00"
       inkscape:connector-curvature="0"
       sodipodi:nodetypes="ccccc" />
    <rect
       style="fill:#cccccc;fill-opacity:1;stroke:#9d9d9d;stroke-width:0.0069368;stroke-miterlimit:4;stroke-dasharray:none;stroke-opacity:1"
       id="rect4707-3"
       width="0.18019129"
       height="1.0712347"
       x="12.677072"
       y="43.381092"
       ry="0.054373376"
       rx="0.090095647"
       transform="matrix(0.99904369,0.04372308,-0.00792047,0.99996863,0,0)" />
    <rect
       style="fill:#cccccc;fill-opacity:1;stroke:#9d9d9d;stroke-width:0.00954259;stroke-miterlimit:4;stroke-dasharray:none;stroke-opacity:1"
       id="rect4707-4"
       width="0.20720018"
       height="1.6430712"
       x="35.968193"
       y="-24.013069"
       ry="0.097376667"
       rx="0.10360009"
       transform="matrix(-0.24713579,0.96898086,-0.91251627,-0.40904041,0,0)" />
    <rect
       style="fill:#cccccc;fill-opacity:1;stroke:#9d9d9d;stroke-width:0.0069368;stroke-miterlimit:4;stroke-dasharray:none;stroke-opacity:1"
       id="rect4707-3-0"
       width="0.18019129"
       height="1.0712347"
       x="10.914286"
       y="42.690479"
       ry="0.054373376"
       rx="0.090095647"
       transform="matrix(0.99904369,0.04372308,-0.00792047,0.99996863,0,0)" />
    <rect
       style="fill:#cccccc;fill-opacity:1;stroke:#9d9d9d;stroke-width:0.00954259;stroke-miterlimit:4;stroke-dasharray:none;stroke-opacity:1"
       id="rect4707-4-2"
       width="0.2072002"
       height="1.6430712"
       x="35.974846"
       y="-22.115732"
       ry="0.097376667"
       rx="0.1036001"
       transform="matrix(-0.24713579,0.96898086,-0.91251627,-0.40904041,0,0)" />
  </g>
</svg>
